<svg width="580" height="564" viewBox="0 0 580 564" fill="none" xmlns="http://www.w3.org/2000/svg">
<g id="undraw_schedule_re_2vro 1" clip-path="url(#clip0_1_2)">
<path id="Vector" d="M223.642 513.249L208.558 527.135L220.546 507.021C211.101 489.894 195.655 475.092 195.655 475.092C195.655 475.092 163.609 505.795 163.609 529.929C163.609 554.063 177.957 562.49 195.655 562.49C213.353 562.49 227.701 554.063 227.701 529.929C227.701 524.557 226.111 518.86 223.642 513.249Z" fill="#247117"/>
<path id="Vector_2" d="M204.679 527.887V529.077C204.608 542.905 202.276 553.693 197.701 561.29C197.636 561.402 197.565 561.508 197.5 561.62L196.988 561.308L196.499 561.002C201.576 552.798 203.372 541.203 203.437 529.142C203.442 528.753 203.448 528.358 203.442 527.964C203.425 522.858 203.113 517.693 202.612 512.675C202.577 512.287 202.536 511.892 202.494 511.498C201.799 504.878 200.798 498.553 199.773 493.059C199.703 492.67 199.626 492.281 199.55 491.899C197.777 482.605 195.969 475.874 195.557 474.384C195.51 474.202 195.48 474.102 195.474 474.078L196.034 473.919L196.04 473.913L196.605 473.754C196.611 473.778 196.711 474.113 196.876 474.738C197.506 477.07 199.143 483.401 200.751 491.751C200.822 492.128 200.898 492.517 200.969 492.906C201.805 497.364 202.624 502.346 203.272 507.576C203.437 508.889 203.584 510.184 203.713 511.462C203.76 511.857 203.802 512.251 203.837 512.64C204.379 518.064 204.66 523.146 204.679 527.887Z" fill="white"/>
<path id="Vector_3" d="M200.751 491.751C200.357 491.804 199.956 491.857 199.55 491.899C198.446 492.012 197.338 492.069 196.228 492.069C191.5 492.076 186.831 491.021 182.565 488.983C182.318 489.296 182.071 489.608 181.817 489.926C186.305 492.116 191.234 493.252 196.228 493.247C197.412 493.247 198.596 493.184 199.773 493.059C200.174 493.017 200.574 492.965 200.969 492.906C204.226 492.438 207.393 491.479 210.362 490.061C210.109 489.737 209.862 489.419 209.62 489.107C206.81 490.42 203.822 491.311 200.751 491.751V491.751Z" fill="white"/>
<path id="Vector_4" d="M203.713 511.462C203.307 511.486 202.901 511.498 202.494 511.498C202.371 511.504 202.241 511.504 202.117 511.504C196.995 511.504 191.948 510.265 187.407 507.893C182.866 505.521 178.967 502.087 176.04 497.882C175.805 498.229 175.569 498.577 175.339 498.93C178.39 503.185 182.41 506.651 187.066 509.042C191.723 511.434 196.882 512.681 202.117 512.681C202.282 512.681 202.447 512.681 202.612 512.675C203.024 512.67 203.431 512.658 203.837 512.64C210.125 512.318 216.187 510.192 221.298 506.515C221.11 506.168 220.921 505.82 220.727 505.473C215.759 509.082 209.847 511.164 203.713 511.462V511.462Z" fill="white"/>
<path id="Vector_5" d="M204.679 527.887C204.267 527.923 203.855 527.946 203.442 527.964C203.001 527.981 202.559 527.993 202.117 527.993C195.234 527.985 188.538 525.748 183.032 521.616C177.526 517.484 173.507 511.68 171.576 505.073C171.311 505.55 171.046 506.021 170.793 506.498C172.969 513.09 177.166 518.828 182.79 522.899C188.413 526.969 195.176 529.164 202.117 529.171C202.559 529.171 203.001 529.165 203.437 529.142C203.855 529.13 204.267 529.106 204.679 529.077C213.006 528.425 220.774 524.634 226.41 518.47C226.286 518.035 226.145 517.605 226.004 517.169C220.56 523.379 212.911 527.223 204.679 527.887V527.887Z" fill="white"/>
<path id="Vector_6" d="M578.394 30.1771H0.838257C0.616439 30.1763 0.403984 30.0876 0.247406 29.9305C0.0908276 29.7734 0.00289917 29.5606 0.00289917 29.3388C0.00289917 29.117 0.0908276 28.9042 0.247406 28.7471C0.403984 28.59 0.616439 28.5013 0.838257 28.5005H578.394C578.616 28.5013 578.828 28.59 578.985 28.7471C579.142 28.9042 579.229 29.117 579.229 29.3388C579.229 29.5606 579.142 29.7734 578.985 29.9305C578.828 30.0876 578.616 30.1763 578.394 30.1771Z" fill="#8C8989"/>
<path id="Vector_7" d="M19.7055 18.4415C24.798 18.4415 28.9263 14.3133 28.9263 9.22077C28.9263 4.12828 24.798 0 19.7055 0C14.6131 0 10.4848 4.12828 10.4848 9.22077C10.4848 14.3133 14.6131 18.4415 19.7055 18.4415Z" fill="#1B8F08"/>
<path id="Vector_8" d="M51.5591 18.4415C56.6516 18.4415 60.7799 14.3133 60.7799 9.22077C60.7799 4.12828 56.6516 0 51.5591 0C46.4666 0 42.3383 4.12828 42.3383 9.22077C42.3383 14.3133 46.4666 18.4415 51.5591 18.4415Z" fill="#1B8F08"/>
<path id="Vector_9" d="M83.4127 18.4415C88.5052 18.4415 92.6335 14.3133 92.6335 9.22077C92.6335 4.12828 88.5052 0 83.4127 0C78.3202 0 74.1919 4.12828 74.1919 9.22077C74.1919 14.3133 78.3202 18.4415 83.4127 18.4415Z" fill="#1B8F08"/>
<path id="Vector_10" d="M559.309 5.64006H536.676C536.233 5.63852 535.808 5.46122 535.494 5.14698C535.181 4.83274 535.005 4.40719 535.005 3.96356C535.005 3.51992 535.181 3.09437 535.494 2.78013C535.808 2.46589 536.233 2.28859 536.676 2.28706H559.309C559.53 2.2863 559.748 2.32909 559.952 2.413C560.156 2.49692 560.342 2.62029 560.498 2.77604C560.654 2.93179 560.778 3.11686 560.863 3.32064C560.948 3.52442 560.991 3.74291 560.991 3.96356C560.991 4.18421 560.948 4.40269 560.863 4.60647C560.778 4.81025 560.654 4.99532 560.498 5.15107C560.342 5.30683 560.156 5.4302 559.952 5.51411C559.748 5.59802 559.53 5.64082 559.309 5.64006Z" fill="#1B8F08"/>
<path id="Vector_11" d="M559.309 11.9269H536.676C536.233 11.9254 535.808 11.7481 535.494 11.4338C535.181 11.1196 535.005 10.6941 535.005 10.2504C535.005 9.80679 535.181 9.38123 535.494 9.067C535.808 8.75276 536.233 8.57546 536.676 8.57392H559.309C559.53 8.57316 559.748 8.61596 559.952 8.69987C560.156 8.78378 560.342 8.90715 560.498 9.06291C560.654 9.21866 560.778 9.40373 560.863 9.60751C560.948 9.81129 560.991 10.0298 560.991 10.2504C560.991 10.4711 560.948 10.6896 560.863 10.8933C560.778 11.0971 560.654 11.2822 560.498 11.4379C560.342 11.5937 560.156 11.7171 559.952 11.801C559.748 11.8849 559.53 11.9277 559.309 11.9269Z" fill="#1B8F08"/>
<path id="Vector_12" d="M559.309 18.2138H536.676C536.233 18.2123 535.808 18.035 535.494 17.7207C535.181 17.4065 535.005 16.981 535.005 16.5373C535.005 16.0937 535.181 15.6681 535.494 15.3539C535.808 15.0397 536.233 14.8624 536.676 14.8608H559.309C559.53 14.8601 559.748 14.9029 559.952 14.9868C560.156 15.0707 560.342 15.194 560.498 15.3498C560.654 15.5056 560.778 15.6906 560.863 15.8944C560.948 16.0982 560.991 16.3167 560.991 16.5373C560.991 16.758 560.948 16.9765 560.863 17.1802C560.778 17.384 560.654 17.5691 560.498 17.7248C560.342 17.8806 560.156 18.004 559.952 18.0879C559.748 18.1718 559.53 18.2146 559.309 18.2138Z" fill="#1B8F08"/>
<path id="Vector_13" d="M546.679 68.0859H17.3994V348.506H546.679V68.0859Z" fill="#F0F0F0"/>
<path id="Vector_14" d="M546.679 120.576V117.826H443.649V68.0859H440.899V117.826H337.869V68.0859H335.119V117.826H232.089V68.0859H229.339V117.826H126.309V68.0859H123.559V117.826H17.3994V120.576H123.559V175.526H17.3994V178.276H123.559V233.226H17.3994V235.976H123.559V290.916H17.3994V293.666H123.559V348.506H126.309V293.666H229.339V348.506H232.089V293.666H335.119V348.506H337.869V293.666H440.899V348.506H443.649V293.666H546.679V290.916H443.649V235.976H546.679V233.226H443.649V178.276H546.679V175.526H443.649V120.576L546.679 120.576ZM229.339 290.916H126.309V235.976H229.339V290.916ZM229.339 233.226H126.309V178.276H229.339V233.226ZM229.339 175.526H126.309V120.576H229.339V175.526ZM335.119 290.916H232.089V235.976H335.119V290.916ZM335.119 233.226H232.089V178.276H335.119V233.226ZM335.119 175.526H232.089V120.576H335.119V175.526ZM440.899 290.916H337.869V235.976H440.899V290.916ZM440.899 233.226H337.869V178.276H440.899V233.226ZM440.899 175.526H337.869V120.576H440.899V175.526Z" fill="white"/>
<path id="Vector_15" d="M182.214 133.939H146.805V168.22H182.214V133.939Z" fill="#CACACA"/>
<path id="Vector_16" d="M508.214 244.939H472.805V279.22H508.214V244.939Z" fill="#CACACA"/>
<path id="Vector_17" d="M193.214 301.939H157.805V336.22H193.214V301.939Z" fill="#CACACA"/>
<path id="Vector_18" d="M203.679 127.579H168.27V161.86H203.679V127.579Z" fill="#0078F9"/>
<path id="Vector_19" d="M370.13 270.076L412.149 232.639L424.545 238.781L374.149 291.639L370.13 270.076Z" fill="#FFB6B6"/>
<path id="Vector_20" d="M417.679 245.506C423.202 245.506 427.679 241.029 427.679 235.506C427.679 229.983 423.202 225.506 417.679 225.506C412.156 225.506 407.679 229.983 407.679 235.506C407.679 241.029 412.156 245.506 417.679 245.506Z" fill="#FFB6B6"/>
<path id="Vector_21" d="M330.799 551.856H320.856L316.126 513.506L330.8 513.507L330.799 551.856Z" fill="#FFB6B6"/>
<path id="Vector_22" d="M333.334 561.494L301.276 561.492V561.087C301.276 557.778 302.591 554.604 304.931 552.264C307.271 549.924 310.444 548.609 313.754 548.609H313.755L333.335 548.61L333.334 561.494Z" fill="#2F2E41"/>
<path id="Vector_23" d="M294.799 551.856H284.856L280.126 513.506L294.8 513.507L294.799 551.856Z" fill="#FFB6B6"/>
<path id="Vector_24" d="M297.334 561.494L265.276 561.492V561.087C265.276 557.778 266.591 554.604 268.931 552.264C271.271 549.924 274.444 548.609 277.754 548.609H277.755L297.335 548.61L297.334 561.494Z" fill="#2F2E41"/>
<path id="Vector_25" d="M339.149 332.639C339.149 332.639 364.149 330.639 356.149 374.639C348.149 418.639 331.578 539 331.578 539L316.555 541.065L307.679 380.506L300.964 541.065L281.857 539L263.149 366.639C263.149 366.639 257.142 352.781 263.146 343.21C269.149 333.639 339.149 332.639 339.149 332.639Z" fill="#104278"/>
<path id="Vector_26" d="M323.149 223.639L330.09 219.92C330.09 219.92 347.191 218.462 354.17 238.55L372.679 266.506L402.679 240.506L415.679 249.506L377.87 294.631L362.149 296.639L328.149 252.639L323.149 223.639Z" fill="#3F3D56"/>
<path id="Vector_27" d="M297.963 142.506C269.445 142.506 261.463 173.833 261.463 191.506C261.463 209.179 277.804 206.506 297.963 206.506C306.615 206.506 314.559 206.994 320.815 206.159L323.824 198.812L326.245 204.9C331.38 203.013 334.463 199.178 334.463 191.506C334.463 173.833 327.463 142.506 297.963 142.506Z" fill="#2F2E41"/>
<path id="Vector_28" d="M297.841 206.476C311.405 206.476 322.402 195.48 322.402 181.915C322.402 168.351 311.405 157.354 297.841 157.354C284.276 157.354 273.28 168.351 273.28 181.915C273.28 195.48 284.276 206.476 297.841 206.476Z" fill="#FFB6B6"/>
<path id="Vector_29" d="M269.463 179.506H279.177L283.463 167.506L284.32 179.506H288.963L291.463 172.506L291.963 179.506H326.463C326.463 172.61 323.723 165.997 318.847 161.121C313.971 156.245 307.358 153.506 300.463 153.506H295.463C288.567 153.506 281.954 156.245 277.078 161.121C272.202 165.997 269.463 172.61 269.463 179.506Z" fill="#2F2E41"/>
<path id="Vector_30" d="M433.679 197.579H398.27V231.86H433.679V197.579Z" fill="#0078F9"/>
<path id="Vector_31" d="M346.92 323.591C343.149 323.639 331.79 256.241 331.79 256.241L330.09 219.921L317.679 219.503V218.687C317.679 217.048 317.028 215.475 315.869 214.316C314.709 213.157 313.137 212.506 311.498 212.506H287.86C286.29 212.507 284.779 213.105 283.634 214.181C282.49 215.256 281.798 216.727 281.699 218.294L271.966 217.967L255.11 271.52C255.11 271.52 270.642 321.281 263.146 343.21C263.146 343.21 336.184 349.482 350.166 335.56C350.166 335.56 350.691 323.542 346.92 323.591Z" fill="#3F3D56"/>
<path id="Vector_32" d="M276.149 224.639L271.966 217.967C271.966 217.967 258.356 214.602 252.753 223.62C247.149 232.639 230.679 281.506 230.679 281.506L247.679 287.506L266.971 260.46L276.149 224.639Z" fill="#3F3D56"/>
<path id="Vector_33" d="M318.679 259.579H283.27V293.86H318.679V259.579Z" fill="#0078F9"/>
<path id="Vector_34" d="M256.103 271.969L243.784 270.666C243.006 272.325 242.616 274.14 242.643 275.973C242.67 277.805 243.113 279.608 243.939 281.244C244.766 282.88 245.953 284.306 247.412 285.416C248.872 286.525 250.564 287.288 252.361 287.646L301.105 297.375L296.02 281.716L256.103 271.969Z" fill="#FFB6B6"/>
<path id="Vector_35" d="M301.251 297.555C306.774 297.555 311.251 293.078 311.251 287.555C311.251 282.032 306.774 277.555 301.251 277.555C295.729 277.555 291.251 282.032 291.251 287.555C291.251 293.078 295.729 297.555 301.251 297.555Z" fill="#FFB6B6"/>
<path id="Vector_36" d="M288.768 297.859L251.633 289.374C248.942 288.752 246.458 287.445 244.42 285.581C242.382 283.717 240.86 281.358 240.001 278.733L238.5 274.105L248.138 266.521L292.29 278.862L288.768 297.859Z" fill="#3F3D56"/>
<path id="Vector_37" d="M496.893 564H75.107C74.8134 564 74.5319 563.895 74.3243 563.707C74.1167 563.52 74 563.265 74 563C74 562.735 74.1167 562.48 74.3243 562.293C74.5319 562.105 74.8134 562 75.107 562H496.893C497.187 562 497.468 562.105 497.676 562.293C497.883 562.48 498 562.735 498 563C498 563.265 497.883 563.52 497.676 563.707C497.468 563.895 497.187 564 496.893 564Z" fill="#8C8989"/>
</g>
<defs>
<clipPath id="clip0_1_2">
<rect width="579.232" height="563.506" fill="white"/>
</clipPath>
</defs>
</svg>
