<svg width="886" height="709" viewBox="0 0 886 709" fill="none" xmlns="http://www.w3.org/2000/svg">
<g id="lost_time 1" clip-path="url(#clip0_1_2)">
<path id="Path 482" d="M200.558 708.135C200.558 708.135 187.805 676.744 226.063 653.201L200.558 708.135Z" fill="#3DC231"/>
<path id="Path 483" d="M184.874 707.564C184.874 707.564 180.984 685.19 150.874 685.382L184.874 707.564Z" fill="#3DC231"/>
<path id="Path 482_2" d="M575.558 708.135C575.558 708.135 562.805 676.744 601.063 653.201L575.558 708.135Z" fill="#3DC231"/>
<path id="Path 483_2" d="M559.874 707.564C559.874 707.564 555.984 685.19 525.874 685.382L559.874 707.564Z" fill="#3DC231"/>
<path id="Vector" d="M565.358 394.03H565.663L571.145 708.317H559.572L565.358 394.03Z" fill="#674410"/>
<path id="Vector_2" d="M565.054 504.883C626.276 504.883 675.907 455.253 675.907 394.031C675.907 332.808 626.276 283.178 565.054 283.178C503.831 283.178 454.201 332.808 454.201 394.031C454.201 455.253 503.831 504.883 565.054 504.883Z" fill="#BBE644"/>
<path id="Vector_3" d="M803.276 479.085H803.498L807.496 708.317H799.055L803.276 479.085Z" fill="#674410"/>
<path id="Vector_4" d="M803.054 559.938C847.707 559.938 883.907 523.739 883.907 479.085C883.907 434.432 847.707 398.233 803.054 398.233C758.4 398.233 722.201 434.432 722.201 479.085C722.201 523.739 758.4 559.938 803.054 559.938Z" fill="#ECB935"/>
<path id="Vector_5" d="M440.328 479.907C441.877 479.729 443.368 479.214 444.696 478.397C446.024 477.581 447.157 476.483 448.015 475.182C448.873 473.88 449.435 472.406 449.662 470.864C449.889 469.321 449.775 467.748 449.328 466.255L480.062 444.087L461.653 437.095L435.289 459.218C432.83 460.135 430.793 461.923 429.563 464.242C428.334 466.561 427.998 469.25 428.619 471.8C429.241 474.351 430.775 476.584 432.933 478.078C435.091 479.572 437.722 480.223 440.328 479.907H440.328Z" fill="#FFB6B6"/>
<path id="Vector_6" d="M417.796 697.353L408.037 697.352L403.394 659.71H417.798L417.796 697.353Z" fill="#FFB6B6"/>
<path id="Vector_7" d="M420.285 706.813L388.817 706.812V706.414C388.817 703.165 390.108 700.05 392.405 697.753C394.702 695.456 397.817 694.166 401.065 694.166H401.066L420.285 694.167L420.285 706.813Z" fill="#2F2E41"/>
<path id="Vector_8" d="M343.253 697.353L333.494 697.352L328.852 659.71H343.255L343.253 697.353Z" fill="#FFB6B6"/>
<path id="Vector_9" d="M345.742 706.813L314.275 706.812V706.414C314.275 703.165 315.565 700.05 317.862 697.753C320.159 695.456 323.274 694.166 326.523 694.166H326.523L345.743 694.167L345.742 706.813Z" fill="#2F2E41"/>
<path id="Vector_10" d="M350.791 488.031L330.109 601.135L322.875 690.973L346.361 689.818L359.73 602.578L392.96 526.618L402.85 689.608L424.47 689.678L436.103 483.507L350.791 488.031Z" fill="#2F2E41"/>
<path id="Vector_11" d="M438.75 358.573L409.762 347.039L376.505 350.844L348.313 366.429C348.313 366.429 356.937 474.587 344.436 499.957C344.436 499.957 354.452 513.83 395.262 510.444C395.262 510.444 435.016 505.419 436.001 492.384C436.986 479.348 437.194 455.647 437.194 455.647L450.993 408.096L438.75 358.573Z" fill="#3443CC"/>
<path id="Vector_12" d="M359.644 368.511L348.313 366.429C348.313 366.429 336.255 371.716 336.379 387.47C336.503 403.224 315.078 456.04 340.711 458.255C366.343 460.469 359.644 420.801 359.644 420.801V368.511Z" fill="#3443CC"/>
<path id="Vector_13" d="M429.556 365.284L438.75 358.573C438.75 358.573 452.788 361.744 457.981 373.045C457.981 373.045 515.546 414.795 499.712 430.628C483.879 446.462 451.602 465.95 451.602 465.95L439.652 452.419L469.301 425.559L444.978 403.401L429.556 365.284Z" fill="#3443CC"/>
<path id="Vector_14" d="M414.856 317.052C414.852 323.361 412.342 329.41 407.879 333.87C403.417 338.33 397.366 340.835 391.056 340.835C384.747 340.835 378.696 338.33 374.233 333.87C369.77 329.41 367.261 323.361 367.257 317.052V316.138C367.501 309.913 370.176 304.032 374.707 299.757C379.239 295.483 385.266 293.155 391.495 293.275C397.723 293.395 403.657 295.952 408.021 300.397C412.385 304.842 414.833 310.822 414.837 317.052H414.856Z" fill="#FFB6B6"/>
<path id="Vector_15" d="M394.674 313.215C396.196 312.965 397.846 312.728 399.211 313.428C402.176 314.944 401.494 319.244 403.114 322.082C403.754 323.208 404.789 324.128 405.215 325.346C405.641 326.564 405.38 328.086 406.05 329.262C407.018 330.961 409.643 331.211 411.366 330.2C412.996 329.07 414.177 327.404 414.703 325.492C415.276 323.872 415.757 322.082 417.139 321.022C417.642 320.736 418.093 320.368 418.473 319.932C418.759 319.355 418.869 318.707 418.79 318.069C418.79 313.952 418.15 310.761 419.082 306.772C420.574 300.341 421.938 297.162 417.212 292.393C414.793 289.982 411.68 288.389 408.309 287.838C405.264 287.339 400.782 291.59 397.7 291.492C389.863 291.182 383.249 283.922 375.777 286.267C372.509 287.293 369.677 289.378 367.726 292.193C364.072 297.576 364.401 299.659 364.93 306.084C364.923 306.571 365.065 307.05 365.338 307.454C365.613 307.783 366.057 307.959 366.325 308.294C366.613 308.737 366.722 309.273 366.63 309.792C366.548 310.839 366.303 311.866 365.905 312.837C365.804 313 365.742 313.183 365.723 313.373C365.704 313.563 365.729 313.755 365.795 313.934C365.945 314.137 366.16 314.283 366.404 314.348C369.449 315.444 372.738 313.331 375.996 313.386C379.254 313.44 382.348 315.621 385.709 315.146C388.675 314.689 391.683 313.708 394.674 313.215Z" fill="#2F2E41"/>
<path id="Vector_16" d="M394.516 445.525C394.313 445.603 394.102 445.657 393.887 445.687L367.46 449.376C366.82 449.468 366.169 449.339 365.613 449.011C365.056 448.683 364.628 448.175 364.398 447.572L341.651 388.381C341.504 387.997 341.441 387.587 341.466 387.177C341.492 386.768 341.606 386.368 341.8 386.006C341.994 385.644 342.263 385.329 342.59 385.081C342.917 384.832 343.294 384.658 343.695 384.568H343.695L368.547 379.022C368.739 378.979 368.924 378.911 369.099 378.821L393.271 366.183C393.457 366.085 393.654 366.008 393.858 365.954L420.46 358.862C421.141 358.679 421.866 358.755 422.494 359.076C423.123 359.396 423.61 359.939 423.862 360.597L443.696 412.208C443.871 412.658 443.928 413.144 443.862 413.622C443.796 414.1 443.61 414.553 443.321 414.939L436.462 424.151C436.139 424.584 435.7 424.917 435.195 425.111L420.204 430.872C420.097 430.913 419.993 430.963 419.893 431.02L394.912 445.337C394.785 445.409 394.653 445.472 394.516 445.525V445.525Z" fill="white"/>
<path id="Vector_17" d="M406.811 366.753L403.433 367.654L394.481 370.041L394.465 370.045L382.21 376.453L377.661 378.832L377.659 378.833L370.828 382.404L370.641 382.446L363.545 384.028L360.115 384.795L346.127 387.917L368.087 445.058L382.501 443.046L386.036 442.552L393.569 441.499L393.656 441.488L417.863 427.614L432.591 421.954L439.316 412.924L420.2 363.184L406.811 366.753Z" fill="#E4E4E4"/>
<path id="Vector_18" d="M423.35 371.379L350.527 399.365L351.774 402.61L424.597 374.624L423.35 371.379Z" fill="white"/>
<path id="Vector_19" d="M427.507 382.195L354.684 410.182L355.931 413.427L428.754 385.44L427.507 382.195Z" fill="white"/>
<path id="Vector_20" d="M435.904 404.045L363.081 432.032L364.328 435.277L437.151 407.29L435.904 404.045Z" fill="white"/>
<path id="Vector_21" d="M406.811 366.753L428.613 423.483L425.368 424.73L403.433 367.654L406.811 366.753Z" fill="white"/>
<path id="Vector_22" d="M382.21 376.453L377.733 388.91L376.181 393.23L372.56 403.312L371.784 405.467L371.007 407.633L369.985 410.476L362.646 430.901L360.738 425.936L366.722 409.28L368.076 405.509L368.274 404.959L369.875 400.5L371.895 394.878L373.448 390.556L377.659 378.833L377.661 378.832L382.21 376.453Z" fill="white"/>
<path id="Vector_23" d="M363.545 384.028L386.035 442.552L382.501 443.046L360.115 384.795L363.545 384.028Z" fill="white"/>
<path id="Vector_24" d="M358.731 440.068C364.449 440.068 369.084 435.433 369.084 429.715C369.084 423.997 364.449 419.362 358.731 419.362C353.013 419.362 348.378 423.997 348.378 429.715C348.378 435.433 353.013 440.068 358.731 440.068Z" fill="#FFB6B6"/>
<path id="Vector_25" d="M700.72 183.975H700.214L691.116 705.577H710.323L700.72 183.975Z" fill="#674410"/>
<path id="Vector_26" d="M701.225 367.951C802.832 367.951 885.201 285.583 885.201 183.976C885.201 82.3687 802.832 0 701.225 0C599.618 0 517.249 82.3687 517.249 183.976C517.249 285.583 599.618 367.951 701.225 367.951Z" fill="#30FA5C"/>
<path id="Vector_27" opacity="0.1" d="M837.067 61.0944C854.228 101.237 856.556 146.173 843.635 187.873C830.714 229.574 803.386 265.322 766.535 288.728C729.684 312.135 685.71 321.675 642.472 315.645C599.234 309.614 559.549 288.406 530.509 255.809C540.992 280.334 556.682 302.287 576.492 320.146C596.301 338.006 619.757 351.345 645.233 359.24C670.71 367.134 697.598 369.395 724.035 365.867C750.473 362.338 775.827 353.104 798.341 338.803C820.855 324.503 839.991 305.479 854.423 283.049C868.855 260.619 878.238 235.32 881.921 208.904C885.605 182.488 883.501 155.587 875.756 130.064C868.011 104.542 854.81 81.0083 837.067 61.0944V61.0944Z" fill="black"/>
<path id="Vector_28" d="M835.147 708H123.853C123.627 708 123.41 707.895 123.25 707.707C123.09 707.52 123 707.265 123 707C123 706.735 123.09 706.48 123.25 706.293C123.41 706.105 123.627 706 123.853 706H835.147C835.373 706 835.59 706.105 835.75 706.293C835.91 706.48 836 706.735 836 707C836 707.265 835.91 707.52 835.75 707.707C835.59 707.895 835.373 708 835.147 708Z" fill="#CACACA"/>
</g>
<defs>
<clipPath id="clip0_1_2">
<rect width="885.201" height="708.317" fill="white"/>
</clipPath>
</defs>
</svg>
