<svg width="585" height="525" viewBox="0 0 585 525" fill="none" xmlns="http://www.w3.org/2000/svg">
<g id="Sin Internet 1" clip-path="url(#clip0_2_2)">
<path id="Vector" d="M461.956 43.3543C461.298 42.8998 460.633 42.4687 459.976 42.0298C440.971 29.4246 420.601 19.1843 399.287 11.5204L394.344 82.2259H363.014V1.19903C361.041 0.775832 359.054 0.376146 357.066 -3.05176e-05V82.2259H319.834C299.337 82.2259 279.679 73.7816 265.186 58.7508C250.692 43.7199 242.55 23.3337 242.55 2.07686V2.07678C240.555 2.52349 238.575 3.00155 236.595 3.51096V82.2259H206.269L201.561 14.8041C179.658 23.5159 158.863 34.9724 139.641 48.9186C139.308 49.1537 138.976 49.3966 138.651 49.6318C136.981 50.8465 135.333 52.0847 133.693 53.3387V323.081H223.068L221.489 300.393L212.798 175.823H387.808L379.117 300.393L377.538 323.081H465.923V46.0816C464.608 45.1568 463.286 44.2477 461.956 43.3543ZM236.595 155.251H211.363L206.7 88.4014H236.595V155.251ZM357.066 155.251H314.688V153.927C314.688 153.29 314.567 152.66 314.331 152.071C314.096 151.483 313.752 150.949 313.317 150.499C312.883 150.049 312.367 149.693 311.799 149.45C311.232 149.207 310.624 149.082 310.01 149.083H291.586C290.973 149.083 290.366 149.208 289.799 149.452C289.232 149.695 288.717 150.052 288.283 150.501C287.85 150.951 287.506 151.485 287.271 152.073C287.037 152.661 286.916 153.291 286.916 153.927V155.251H242.55V88.4014H357.066V155.251ZM363.014 155.251V88.4014H393.914L389.251 155.251H363.014Z" fill="#D0CACA"/>
<path id="Vector_2" d="M559.018 490.243L559.609 476.469C565.767 473.055 572.635 471.252 579.617 471.216C570.008 479.364 571.209 495.071 564.694 506.028C562.636 509.429 559.867 512.306 556.592 514.447C553.317 516.588 549.619 517.936 545.772 518.393L537.731 523.5C536.627 517.12 536.87 510.568 538.444 504.295C540.017 498.022 542.883 492.178 546.844 487.164C549.093 484.375 551.672 481.89 554.519 479.768C556.445 485.035 559.018 490.243 559.018 490.243Z" fill="#0B9D3D"/>
<path id="Vector_3" d="M127.559 475.149L108.153 469.056C105.608 458.332 105.625 447.127 108.203 436.412C116.195 454.209 139.029 458.284 152.19 472.396C156.262 476.83 159.319 482.158 161.136 487.984C162.953 493.81 163.482 499.986 162.684 506.053L166.932 520.301C157.425 519.59 148.18 516.749 139.834 511.975C131.488 507.201 124.238 500.608 118.586 492.649C115.458 488.151 112.888 483.263 110.937 478.099C119.168 477.131 127.559 475.149 127.559 475.149Z" fill="#038A11"/>
<path id="Vector_4" d="M543.917 521.247C543.915 521.664 543.754 522.064 543.471 522.36C543.331 522.505 543.165 522.62 542.982 522.698C542.8 522.776 542.604 522.815 542.406 522.815H536.33C536.132 522.815 535.935 522.775 535.751 522.697C535.567 522.618 535.4 522.503 535.26 522.357C535.119 522.211 535.008 522.038 534.932 521.848C534.857 521.657 534.818 521.453 534.819 521.247V330.698C534.819 326.498 533.459 323.088 531.789 323.081H76.4954C74.8178 323.088 73.4651 326.498 73.4576 330.698V520.08C73.4563 520.469 73.3157 520.844 73.063 521.132C72.8103 521.42 72.4635 521.601 72.0898 521.639C70.8656 521.765 69.6414 521.874 68.4247 521.976C68.3945 521.976 68.3643 521.984 68.334 521.984C67.669 522.047 67.004 522.094 66.339 522.148H66.3315C65.9839 521.498 65.6513 520.832 65.3113 520.166C65.2023 519.939 65.1454 519.69 65.145 519.437V320.816C65.145 319.656 65.1904 318.488 65.2659 317.336C65.3738 315.754 65.563 314.179 65.8327 312.618C67.1098 305.338 69.9965 300.408 73.2762 300.393H535C535.479 300.396 535.952 300.5 536.391 300.698C537.035 300.994 537.618 301.417 538.106 301.944C538.769 302.659 539.336 303.463 539.791 304.334C541.408 307.289 542.565 311.693 542.973 316.819C542.973 316.866 542.98 316.913 542.98 316.96C543.086 318.23 543.139 319.523 543.131 320.816L543.237 337.61L543.305 347.626L543.509 379.053L543.585 390.212L543.917 521.247Z" fill="#6D6262"/>
<path id="Vector_5" d="M583.924 524.657L334.076 525C333.79 524.999 333.517 524.859 333.315 524.61C333.113 524.361 333 524.023 333 523.671C333 523.32 333.113 522.982 333.315 522.733C333.517 522.484 333.79 522.344 334.076 522.343L583.924 522C584.21 522.001 584.483 522.141 584.685 522.39C584.887 522.639 585 522.977 585 523.329C585 523.68 584.887 524.018 584.685 524.267C584.483 524.516 584.21 524.656 583.924 524.657Z" fill="#CACACA"/>
<path id="Vector_6" d="M325.45 244.719H288.543C288.021 244.72 287.521 244.936 287.152 245.319C286.783 245.703 286.577 246.222 286.577 246.764V307.226H327.421V246.764C327.421 246.495 327.37 246.229 327.271 245.981C327.172 245.733 327.027 245.508 326.844 245.318C326.661 245.128 326.443 244.977 326.204 244.875C325.965 244.772 325.709 244.719 325.45 244.719ZM307.121 279.073C305.967 279.068 304.861 278.59 304.045 277.744C303.229 276.897 302.768 275.751 302.763 274.554V267.58C302.763 266.381 303.222 265.232 304.039 264.384C304.856 263.537 305.965 263.06 307.121 263.06C308.277 263.06 309.385 263.537 310.202 264.384C311.02 265.232 311.479 266.381 311.479 267.58V274.554C311.473 275.751 311.013 276.897 310.196 277.744C309.38 278.59 308.275 279.068 307.121 279.073V279.073Z" fill="#2F2E41"/>
<path id="Vector_7" d="M386.563 150.361H228.803C227.448 150.363 226.148 150.922 225.19 151.916C224.232 152.91 223.692 154.258 223.69 155.663V266.067C223.691 267.473 224.23 268.821 225.189 269.815C226.148 270.809 227.447 271.369 228.803 271.37H386.563C387.919 271.369 389.219 270.809 390.177 269.815C391.136 268.821 391.675 267.473 391.676 266.067V155.663C391.674 154.258 391.135 152.91 390.176 151.916C389.218 150.922 387.919 150.363 386.563 150.361V150.361Z" fill="#3F3D56"/>
<path id="Vector_8" d="M385.244 154.19H230.118C229.393 154.191 228.697 154.492 228.185 155.024C227.672 155.557 227.384 156.279 227.384 157.032V264.699C227.385 265.451 227.674 266.171 228.186 266.703C228.699 267.234 229.394 267.533 230.118 267.535H385.244C385.969 267.533 386.663 267.234 387.176 266.703C387.689 266.171 387.977 265.451 387.978 264.699V157.032C387.978 156.279 387.69 155.557 387.178 155.024C386.665 154.492 385.97 154.191 385.244 154.19V154.19Z" fill="white"/>
<path id="Vector_9" d="M286.451 305.292V311.126C286.451 311.428 286.567 311.718 286.773 311.931C286.979 312.145 287.259 312.265 287.55 312.266H326.448C326.739 312.265 327.018 312.144 327.224 311.93C327.43 311.717 327.546 311.428 327.548 311.126V305.292H286.451Z" fill="#3F3D56"/>
<path id="Vector_10" d="M355.031 314.296H262.74C262.487 314.296 262.237 314.237 262.009 314.125C261.781 314.012 261.58 313.848 261.421 313.645C261.262 313.441 261.149 313.203 261.089 312.949C261.03 312.694 261.026 312.429 261.078 312.173L262.51 305.119C262.592 304.724 262.801 304.371 263.103 304.116C263.405 303.862 263.782 303.723 264.171 303.721H353.599C353.988 303.723 354.365 303.862 354.667 304.116C354.969 304.371 355.178 304.724 355.26 305.119L356.692 312.173C356.744 312.429 356.74 312.694 356.681 312.949C356.622 313.203 356.508 313.441 356.349 313.645C356.19 313.848 355.989 314.012 355.761 314.125C355.533 314.237 355.283 314.296 355.031 314.296V314.296Z" fill="#2F2E41"/>
<path id="Vector_11" d="M267.3 304.991H265.196C264.992 304.991 264.827 305.163 264.827 305.374V306.377C264.827 306.589 264.992 306.76 265.196 306.76H267.3C267.504 306.76 267.669 306.589 267.669 306.377V305.374C267.669 305.163 267.504 304.991 267.3 304.991Z" fill="#3F3D56"/>
<path id="Vector_12" d="M272.985 304.991H270.881C270.677 304.991 270.512 305.163 270.512 305.374V306.377C270.512 306.589 270.677 306.76 270.881 306.76H272.985C273.189 306.76 273.354 306.589 273.354 306.377V305.374C273.354 305.163 273.189 304.991 272.985 304.991Z" fill="#3F3D56"/>
<path id="Vector_13" d="M278.67 304.991H276.566C276.362 304.991 276.197 305.163 276.197 305.374V306.377C276.197 306.589 276.362 306.76 276.566 306.76H278.67C278.874 306.76 279.039 306.589 279.039 306.377V305.374C279.039 305.163 278.874 304.991 278.67 304.991Z" fill="#3F3D56"/>
<path id="Vector_14" d="M284.355 304.991H282.251C282.047 304.991 281.882 305.163 281.882 305.374V306.377C281.882 306.589 282.047 306.76 282.251 306.76H284.355C284.559 306.76 284.724 306.589 284.724 306.377V305.374C284.724 305.163 284.559 304.991 284.355 304.991Z" fill="#3F3D56"/>
<path id="Vector_15" d="M290.04 304.991H287.936C287.732 304.991 287.567 305.163 287.567 305.374V306.377C287.567 306.589 287.732 306.76 287.936 306.76H290.04C290.244 306.76 290.409 306.589 290.409 306.377V305.374C290.409 305.163 290.244 304.991 290.04 304.991Z" fill="#3F3D56"/>
<path id="Vector_16" d="M295.725 304.991H293.62C293.417 304.991 293.252 305.163 293.252 305.374V306.377C293.252 306.589 293.417 306.76 293.62 306.76H295.725C295.929 306.76 296.094 306.589 296.094 306.377V305.374C296.094 305.163 295.929 304.991 295.725 304.991Z" fill="#3F3D56"/>
<path id="Vector_17" d="M301.41 304.991H299.305C299.102 304.991 298.936 305.163 298.936 305.374V306.377C298.936 306.589 299.102 306.76 299.305 306.76H301.41C301.614 306.76 301.779 306.589 301.779 306.377V305.374C301.779 305.163 301.614 304.991 301.41 304.991Z" fill="#3F3D56"/>
<path id="Vector_18" d="M307.095 304.991H304.99C304.787 304.991 304.621 305.163 304.621 305.374V306.377C304.621 306.589 304.787 306.76 304.99 306.76H307.095C307.299 306.76 307.464 306.589 307.464 306.377V305.374C307.464 305.163 307.299 304.991 307.095 304.991Z" fill="#3F3D56"/>
<path id="Vector_19" d="M312.78 304.991H310.675C310.472 304.991 310.306 305.163 310.306 305.374V306.377C310.306 306.589 310.472 306.76 310.675 306.76H312.78C312.984 306.76 313.149 306.589 313.149 306.377V305.374C313.149 305.163 312.984 304.991 312.78 304.991Z" fill="#3F3D56"/>
<path id="Vector_20" d="M318.465 304.991H316.36C316.157 304.991 315.991 305.163 315.991 305.374V306.377C315.991 306.589 316.157 306.76 316.36 306.76H318.465C318.669 306.76 318.834 306.589 318.834 306.377V305.374C318.834 305.163 318.669 304.991 318.465 304.991Z" fill="#3F3D56"/>
<path id="Vector_21" d="M324.15 304.991H322.045C321.841 304.991 321.676 305.163 321.676 305.374V306.377C321.676 306.589 321.841 306.76 322.045 306.76H324.15C324.354 306.76 324.519 306.589 324.519 306.377V305.374C324.519 305.163 324.354 304.991 324.15 304.991Z" fill="#3F3D56"/>
<path id="Vector_22" d="M329.835 304.991H327.73C327.526 304.991 327.361 305.163 327.361 305.374V306.377C327.361 306.589 327.526 306.76 327.73 306.76H329.835C330.039 306.76 330.204 306.589 330.204 306.377V305.374C330.204 305.163 330.039 304.991 329.835 304.991Z" fill="#3F3D56"/>
<path id="Vector_23" d="M335.52 304.991H333.415C333.211 304.991 333.046 305.163 333.046 305.374V306.377C333.046 306.589 333.211 306.76 333.415 306.76H335.52C335.724 306.76 335.889 306.589 335.889 306.377V305.374C335.889 305.163 335.724 304.991 335.52 304.991Z" fill="#3F3D56"/>
<path id="Vector_24" d="M341.205 304.991H339.1C338.896 304.991 338.731 305.163 338.731 305.374V306.377C338.731 306.589 338.896 306.76 339.1 306.76H341.205C341.408 306.76 341.574 306.589 341.574 306.377V305.374C341.574 305.163 341.408 304.991 341.205 304.991Z" fill="#3F3D56"/>
<path id="Vector_25" d="M346.89 304.991H344.785C344.581 304.991 344.416 305.163 344.416 305.374V306.377C344.416 306.589 344.581 306.76 344.785 306.76H346.89C347.093 306.76 347.259 306.589 347.259 306.377V305.374C347.259 305.163 347.093 304.991 346.89 304.991Z" fill="#3F3D56"/>
<path id="Vector_26" d="M352.575 304.991H350.47C350.266 304.991 350.101 305.163 350.101 305.374V306.377C350.101 306.589 350.266 306.76 350.47 306.76H352.575C352.778 306.76 352.944 306.589 352.944 306.377V305.374C352.944 305.163 352.778 304.991 352.575 304.991Z" fill="#3F3D56"/>
<path id="Vector_27" d="M267.233 307.939H265.129C264.925 307.939 264.76 308.11 264.76 308.322V309.325C264.76 309.537 264.925 309.708 265.129 309.708H267.233C267.437 309.708 267.602 309.537 267.602 309.325V308.322C267.602 308.11 267.437 307.939 267.233 307.939Z" fill="#3F3D56"/>
<path id="Vector_28" d="M272.918 307.939H270.813C270.61 307.939 270.445 308.11 270.445 308.322V309.325C270.445 309.537 270.61 309.708 270.813 309.708H272.918C273.122 309.708 273.287 309.537 273.287 309.325V308.322C273.287 308.11 273.122 307.939 272.918 307.939Z" fill="#3F3D56"/>
<path id="Vector_29" d="M278.603 307.939H276.498C276.295 307.939 276.129 308.11 276.129 308.322V309.325C276.129 309.537 276.295 309.708 276.498 309.708H278.603C278.807 309.708 278.972 309.537 278.972 309.325V308.322C278.972 308.11 278.807 307.939 278.603 307.939Z" fill="#3F3D56"/>
<path id="Vector_30" d="M284.288 307.939H282.183C281.98 307.939 281.814 308.11 281.814 308.322V309.325C281.814 309.537 281.98 309.708 282.183 309.708H284.288C284.492 309.708 284.657 309.537 284.657 309.325V308.322C284.657 308.11 284.492 307.939 284.288 307.939Z" fill="#3F3D56"/>
<path id="Vector_31" d="M289.973 307.939H287.868C287.665 307.939 287.499 308.11 287.499 308.322V309.325C287.499 309.537 287.665 309.708 287.868 309.708H289.973C290.177 309.708 290.342 309.537 290.342 309.325V308.322C290.342 308.11 290.177 307.939 289.973 307.939Z" fill="#3F3D56"/>
<path id="Vector_32" d="M295.658 307.939H293.553C293.35 307.939 293.184 308.11 293.184 308.322V309.325C293.184 309.537 293.35 309.708 293.553 309.708H295.658C295.862 309.708 296.027 309.537 296.027 309.325V308.322C296.027 308.11 295.862 307.939 295.658 307.939Z" fill="#3F3D56"/>
<path id="Vector_33" d="M301.343 307.939H299.238C299.034 307.939 298.869 308.11 298.869 308.322V309.325C298.869 309.537 299.034 309.708 299.238 309.708H301.343C301.547 309.708 301.712 309.537 301.712 309.325V308.322C301.712 308.11 301.547 307.939 301.343 307.939Z" fill="#3F3D56"/>
<path id="Vector_34" d="M307.028 307.939H304.923C304.719 307.939 304.554 308.11 304.554 308.322V309.325C304.554 309.537 304.719 309.708 304.923 309.708H307.028C307.232 309.708 307.397 309.537 307.397 309.325V308.322C307.397 308.11 307.232 307.939 307.028 307.939Z" fill="#3F3D56"/>
<path id="Vector_35" d="M312.713 307.939H310.608C310.404 307.939 310.239 308.11 310.239 308.322V309.325C310.239 309.537 310.404 309.708 310.608 309.708H312.713C312.917 309.708 313.082 309.537 313.082 309.325V308.322C313.082 308.11 312.917 307.939 312.713 307.939Z" fill="#3F3D56"/>
<path id="Vector_36" d="M318.398 307.939H316.293C316.089 307.939 315.924 308.11 315.924 308.322V309.325C315.924 309.537 316.089 309.708 316.293 309.708H318.398C318.601 309.708 318.767 309.537 318.767 309.325V308.322C318.767 308.11 318.601 307.939 318.398 307.939Z" fill="#3F3D56"/>
<path id="Vector_37" d="M324.083 307.939H321.978C321.774 307.939 321.609 308.11 321.609 308.322V309.325C321.609 309.537 321.774 309.708 321.978 309.708H324.083C324.286 309.708 324.452 309.537 324.452 309.325V308.322C324.452 308.11 324.286 307.939 324.083 307.939Z" fill="#3F3D56"/>
<path id="Vector_38" d="M329.768 307.939H327.663C327.459 307.939 327.294 308.11 327.294 308.322V309.325C327.294 309.537 327.459 309.708 327.663 309.708H329.768C329.971 309.708 330.137 309.537 330.137 309.325V308.322C330.137 308.11 329.971 307.939 329.768 307.939Z" fill="#3F3D56"/>
<path id="Vector_39" d="M335.453 307.939H333.348C333.144 307.939 332.979 308.11 332.979 308.322V309.325C332.979 309.537 333.144 309.708 333.348 309.708H335.453C335.656 309.708 335.822 309.537 335.822 309.325V308.322C335.822 308.11 335.656 307.939 335.453 307.939Z" fill="#3F3D56"/>
<path id="Vector_40" d="M341.138 307.939H339.033C338.829 307.939 338.664 308.11 338.664 308.322V309.325C338.664 309.537 338.829 309.708 339.033 309.708H341.138C341.341 309.708 341.506 309.537 341.506 309.325V308.322C341.506 308.11 341.341 307.939 341.138 307.939Z" fill="#3F3D56"/>
<path id="Vector_41" d="M346.822 307.939H344.718C344.514 307.939 344.349 308.11 344.349 308.322V309.325C344.349 309.537 344.514 309.708 344.718 309.708H346.822C347.026 309.708 347.191 309.537 347.191 309.325V308.322C347.191 308.11 347.026 307.939 346.822 307.939Z" fill="#3F3D56"/>
<path id="Vector_42" d="M352.507 307.939H350.403C350.199 307.939 350.034 308.11 350.034 308.322V309.325C350.034 309.537 350.199 309.708 350.403 309.708H352.507C352.711 309.708 352.876 309.537 352.876 309.325V308.322C352.876 308.11 352.711 307.939 352.507 307.939Z" fill="#3F3D56"/>
<path id="Vector_43" d="M314.418 311.477H292.416C292.213 311.477 292.047 311.648 292.047 311.859V312.863C292.047 313.074 292.213 313.245 292.416 313.245H314.418C314.622 313.245 314.787 313.074 314.787 312.863V311.859C314.787 311.648 314.622 311.477 314.418 311.477Z" fill="#3F3D56"/>
<path id="Vector_44" d="M377.449 169.025H232.299C232.147 169.022 232.004 168.957 231.898 168.845C231.792 168.733 231.733 168.583 231.733 168.426C231.733 168.27 231.792 168.119 231.898 168.007C232.004 167.896 232.147 167.831 232.299 167.828H377.449C377.6 167.831 377.743 167.896 377.849 168.007C377.955 168.119 378.014 168.27 378.014 168.426C378.014 168.583 377.955 168.733 377.849 168.845C377.743 168.957 377.6 169.022 377.449 169.025V169.025Z" fill="#CACACA"/>
<path id="Vector_45" d="M242.179 164.771C244.047 164.771 245.562 163.166 245.562 161.185C245.562 159.204 244.047 157.599 242.179 157.599C240.311 157.599 238.796 159.204 238.796 161.185C238.796 163.166 240.311 164.771 242.179 164.771Z" fill="#3F3D56"/>
<path id="Vector_46" d="M253.865 164.771C255.733 164.771 257.248 163.166 257.248 161.185C257.248 159.204 255.733 157.599 253.865 157.599C251.997 157.599 250.482 159.204 250.482 161.185C250.482 163.166 251.997 164.771 253.865 164.771Z" fill="#3F3D56"/>
<path id="Vector_47" d="M265.551 164.771C267.419 164.771 268.934 163.166 268.934 161.185C268.934 159.204 267.419 157.599 265.551 157.599C263.683 157.599 262.168 159.204 262.168 161.185C262.168 163.166 263.683 164.771 265.551 164.771Z" fill="#3F3D56"/>
<path id="Vector_48" d="M370.413 158.487H362.111C361.947 158.491 361.79 158.561 361.675 158.683C361.56 158.805 361.495 158.969 361.495 159.139C361.495 159.31 361.56 159.474 361.675 159.596C361.79 159.718 361.947 159.788 362.111 159.791H370.413C370.577 159.788 370.734 159.718 370.849 159.596C370.964 159.474 371.029 159.31 371.029 159.139C371.029 158.969 370.964 158.805 370.849 158.683C370.734 158.561 370.577 158.491 370.413 158.487V158.487Z" fill="#3F3D56"/>
<path id="Vector_49" d="M370.413 160.934H362.111C361.947 160.938 361.79 161.008 361.675 161.13C361.56 161.252 361.495 161.415 361.495 161.586C361.495 161.757 361.56 161.921 361.675 162.043C361.79 162.164 361.947 162.235 362.111 162.238H370.413C370.577 162.235 370.734 162.164 370.849 162.043C370.964 161.921 371.029 161.757 371.029 161.586C371.029 161.415 370.964 161.252 370.849 161.13C370.734 161.008 370.577 160.938 370.413 160.934V160.934Z" fill="#3F3D56"/>
<path id="Vector_50" d="M370.413 163.378H362.111C361.947 163.381 361.79 163.451 361.675 163.573C361.56 163.695 361.495 163.859 361.495 164.03C361.495 164.2 361.56 164.364 361.675 164.486C361.79 164.608 361.947 164.678 362.111 164.682H370.413C370.577 164.678 370.734 164.608 370.849 164.486C370.964 164.364 371.029 164.2 371.029 164.03C371.029 163.859 370.964 163.695 370.849 163.573C370.734 163.451 370.577 163.381 370.413 163.378V163.378Z" fill="#3F3D56"/>
<path id="Vector_51" d="M316.468 203.997H298.331C296.969 203.997 295.864 205.142 295.864 206.555V206.555C295.864 207.968 296.969 209.113 298.331 209.113H316.468C317.831 209.113 318.935 207.968 318.935 206.555V206.555C318.935 205.142 317.831 203.997 316.468 203.997Z" fill="#F9A826"/>
<path id="Vector_52" d="M328.185 214.23H286.614C285.252 214.23 284.148 215.375 284.148 216.788V216.788C284.148 218.201 285.252 219.346 286.614 219.346H328.185C329.547 219.346 330.652 218.201 330.652 216.788C330.652 215.375 329.547 214.23 328.185 214.23Z" fill="#E6E6E6"/>
<path id="Vector_53" d="M328.185 224.462H286.614C285.252 224.462 284.148 225.607 284.148 227.02C284.148 228.433 285.252 229.578 286.614 229.578H328.185C329.547 229.578 330.652 228.433 330.652 227.02C330.652 225.607 329.547 224.462 328.185 224.462Z" fill="#E6E6E6"/>
<path id="Vector_54" d="M233.716 321.991H188.375C186.771 321.991 185.234 322.652 184.1 323.828C182.966 325.003 182.329 326.598 182.329 328.261C182.329 329.924 182.966 331.518 184.1 332.694C185.234 333.87 186.771 334.531 188.375 334.531H205V383.12H217.091V334.531H233.716C235.319 334.531 236.857 333.87 237.991 332.694C239.124 331.518 239.761 329.924 239.761 328.261C239.761 326.598 239.124 325.003 237.991 323.828C236.857 322.652 235.319 321.991 233.716 321.991Z" fill="#3F3D56"/>
<path id="Vector_55" d="M263.642 410.03H142.367C130.61 409.985 119.261 405.556 110.393 397.55C101.525 389.545 95.7298 378.498 94.0664 366.428L89.7736 350.052C80.8883 316.118 67.3543 283.681 49.5852 253.733C41.4636 240.054 37.2834 226.814 46.7779 214.066C46.8588 213.957 46.9383 213.85 47.0164 213.745C54.6316 203.465 92.5347 201.24 104.891 200.807C105.379 200.79 105.869 200.782 106.361 200.782H181.793C182.285 200.782 182.775 200.79 183.262 200.807C189.923 201.009 196.408 203.076 202.027 206.791C207.646 210.505 212.191 215.728 215.18 221.905C218.368 228.212 219.852 235.296 219.472 242.406C219.092 249.516 216.863 256.387 213.022 262.289C186.525 303.567 178.412 329.45 186.718 346.212C194.752 362.425 219.378 370.714 264.22 372.297C276.27 372.723 281.8 382.454 281.839 391.315C281.877 399.947 276.56 409.478 264.796 410.005C264.414 410.021 264.029 410.03 263.642 410.03Z" fill="#484FF8"/>
<path id="Vector_56" d="M163 522H208C209.591 522 211.117 521.375 212.243 520.262C213.368 519.149 214 517.64 214 516.066C214 514.492 213.368 512.983 212.243 511.87C211.117 510.758 209.591 510.132 208 510.132H191.5V410H179.5V510.132H163C161.409 510.132 159.883 510.758 158.757 511.87C157.632 512.983 157 514.492 157 516.066C157 517.64 157.632 519.149 158.757 520.262C159.883 521.375 161.409 522 163 522Z" fill="#3F3D56"/>
<path id="Vector_57" d="M159.348 204.709L160.298 210.699C160.748 213.603 162.376 234.12 161.17 236.568C161.064 231.998 152.857 224.812 147.54 226.453L139.196 228.376L134.017 229.571L129.801 230.529L117.552 233.305C117.531 233.157 117.516 233 117.494 232.853C117.465 232.667 117.436 232.481 117.4 232.297C117.172 231.106 116.756 229.962 116.169 228.911C116.107 230.318 115.706 231.688 115.003 232.894C114.984 232.925 114.967 232.958 114.953 232.992C114.736 233.357 114.495 233.708 114.234 234.041C114.222 234.049 114.211 234.06 114.202 234.072C114.202 234.072 111.685 192.465 111.949 192.081C112.142 191.808 112.336 191.543 112.54 191.284C112.742 191.017 112.938 190.759 113.148 190.498C113.175 190.474 113.198 190.445 113.216 190.412C113.807 189.687 114.432 188.994 115.089 188.335C115.283 188.142 115.483 187.947 115.684 187.753C118.749 184.812 122.41 182.622 126.399 181.343C126.849 181.2 127.316 181.068 127.791 180.936C128.261 180.812 128.739 180.695 129.22 180.592L129.383 180.558C129.613 180.509 129.851 180.467 130.082 180.426C130.372 180.372 130.664 180.326 130.95 180.289C134.661 179.735 138.442 179.955 142.069 180.938C142.077 180.936 142.078 180.944 142.086 180.942C145.114 181.763 147.992 183.092 150.606 184.877C155.128 187.974 156.888 193.024 158.138 198.694C158.576 200.641 158.945 202.666 159.348 204.709Z" fill="#2F2E41"/>
<path id="Vector_58" d="M204.007 479.054L211.818 483.454L232.495 453.805L220.966 447.311L204.007 479.054Z" fill="#FFB6B6"/>
<path id="Vector_59" d="M207.767 468.489L221.947 473.094L219.69 479.255L229.413 493.89C229.893 494.613 230.138 495.476 230.112 496.353C230.086 497.231 229.79 498.076 229.268 498.767C228.745 499.458 228.023 499.957 227.208 500.192C226.392 500.427 225.526 500.386 224.735 500.074L208.227 493.57L207.615 486.355L204.271 492.011L198.047 489.559L207.767 468.489Z" fill="#3D3C4A"/>
<path id="Vector_60" d="M248.25 346.443C247.003 346.758 245.705 346.785 244.447 346.523C243.189 346.262 242.002 345.717 240.969 344.928C239.935 344.139 239.082 343.124 238.467 341.956C237.853 340.788 237.494 339.494 237.414 338.166L170.791 313.31L183.018 302.275L246.252 328.386C248.412 328.394 250.495 329.225 252.104 330.719C253.713 332.213 254.738 334.268 254.985 336.494C255.231 338.72 254.681 340.962 253.44 342.796C252.199 344.629 250.352 345.927 248.25 346.443V346.443Z" fill="#FFB6B6"/>
<path id="Vector_61" d="M152.18 251.732C152.18 251.732 140.959 251.988 139.962 265.274C138.964 278.559 163.448 311.419 167.241 316.838C171.034 322.257 213.169 328.927 213.169 328.927L227.492 318.143C212.442 308.03 198.707 300.275 189.489 300.624L152.18 251.732Z" fill="#F9A826"/>
<path id="Vector_62" d="M138.418 310.351L141.153 322.535C141.153 322.535 141.179 333.769 143.098 335.84C145.003 337.902 186.894 333.762 186.894 333.762C186.894 333.762 182.452 315.659 182.512 301.961L138.418 310.351Z" fill="#FFB6B6"/>
<path id="Vector_63" d="M226.915 466.192L211.801 457.572C211.513 437.176 223.343 409.575 237.373 380.665C205.995 386.262 176.392 388.055 150.787 381.284C146.584 380.133 142.986 377.313 140.771 373.433C138.556 369.553 137.902 364.925 138.951 360.549C139.051 360.12 139.166 359.695 139.297 359.274C142.361 349.578 135.49 343.5 141.81 332.835C158.432 326.948 174.223 325.285 188.662 330.484L197.71 351.23L242.554 345.212C244.721 344.943 246.917 345.122 249.017 345.738C251.116 346.353 253.078 347.394 254.788 348.8C256.498 350.205 257.923 351.948 258.98 353.927C260.038 355.906 260.708 358.083 260.95 360.332C261.01 360.837 261.05 361.344 261.068 361.853C252.001 405.938 241.833 445.606 226.915 466.192Z" fill="#3D3C4A"/>
<path id="Vector_64" d="M140.495 226.16C150.637 224.008 157.177 213.736 155.102 203.218C153.026 192.7 143.122 185.917 132.98 188.07C122.837 190.222 116.298 200.494 118.373 211.012C120.448 221.53 130.353 228.312 140.495 226.16Z" fill="#FFB6B6"/>
<path id="Vector_65" d="M132.331 233.217L149.607 232.159C150.335 232.114 151.059 232.307 151.677 232.709C152.296 233.111 152.777 233.703 153.056 234.403L157.938 246.677L178.228 264.069C178.228 264.069 186.261 274.671 186.28 288.363C186.299 302.055 189.13 333.747 189.13 333.747C189.13 333.747 177.406 316.632 170.169 321.184C168.938 321.958 168.505 323.542 167.215 324.342C166.572 324.742 165.086 324.354 164.436 324.754C154.465 330.893 144.065 336.89 143.093 335.839C141.185 333.774 138.871 323.223 138.871 323.223L123.057 262.966C122.2 259.796 122.03 256.468 122.559 253.221C123.088 249.975 124.303 246.89 126.117 244.188C127.222 242.574 128.38 241.374 129.455 241.176C131.871 240.643 130.586 235.029 132.331 233.217Z" fill="#F9A826"/>
<path id="Vector_66" d="M279.289 504.578L286.581 499.32L270.061 466.997L259.298 474.757L279.289 504.578Z" fill="#FFB6B6"/>
<path id="Vector_67" d="M280.391 482.89L268.962 493.484C250.79 472.484 237.052 443.033 225.409 409.587C194.906 400.322 171.902 385.38 151.819 367.638C145.007 361.66 139.899 353.979 145.71 346.697C145.981 346.356 146.265 346.027 146.561 345.709C153.421 338.397 170.819 339.79 181.008 333.092L203.771 358.324L202.339 365.089L245.093 380.108C247.151 380.856 249.045 382.019 250.666 383.529C252.288 385.04 253.605 386.869 254.542 388.91C255.479 390.951 256.017 393.164 256.125 395.422C256.233 397.68 255.909 399.938 255.171 402.065C255.011 402.546 254.831 403.019 254.632 403.485L280.391 482.89Z" fill="#3D3C4A"/>
<path id="Vector_68" d="M275.037 502.446L286.71 492.913L290.337 498.324L307.475 498.27C308.321 498.267 309.146 498.545 309.83 499.063C310.513 499.581 311.019 500.312 311.273 501.149C311.528 501.986 311.517 502.886 311.244 503.717C310.97 504.547 310.448 505.266 309.753 505.767L295.254 516.219L289.167 512.668L291.779 518.725L286.312 522.666L275.037 502.446Z" fill="#3D3C4A"/>
<path id="Vector_69" d="M157.842 385.074C156.661 384.554 155.604 383.771 154.746 382.782C153.887 381.793 153.249 380.62 152.875 379.348C152.501 378.075 152.401 376.732 152.581 375.415C152.762 374.097 153.218 372.837 153.919 371.722L114.809 310.514L130.971 309.24L166.641 369.355C168.368 370.7 169.56 372.656 169.99 374.852C170.42 377.047 170.058 379.33 168.973 381.267C167.889 383.205 166.157 384.663 164.105 385.364C162.053 386.066 159.825 385.962 157.842 385.074Z" fill="#FFB6B6"/>
<path id="Vector_70" d="M135.355 249.601C135.355 249.601 126.208 242.855 117.756 252.891C109.303 262.927 110.009 304.448 109.929 311.144C109.905 313.241 112.824 317.765 116.846 322.991C118.652 325.337 120.68 327.825 122.764 330.298C123.97 331.729 122.931 334.707 124.141 336.098C125.346 337.481 128.8 337.277 129.945 338.561C135.381 344.654 139.798 349.293 139.798 349.293L157.496 349.519C157.696 335.874 148.686 323.695 137.111 311.924L135.355 249.601Z" fill="#F9A826"/>
<path id="Vector_71" d="M160.166 197.672C159.472 198.027 158.799 198.37 158.138 198.694C155.486 200.046 152.744 201.203 149.935 202.155C149.467 200.836 148.754 199.625 147.836 198.592C148.071 200.019 147.951 201.484 147.488 202.85C143.236 203.942 138.772 203.763 134.613 202.334C137.333 207.557 139.342 218.561 139.196 228.376C139.132 233.565 138.455 238.42 136.976 241.91L135.075 235.914C134.899 233.772 134.545 231.65 134.017 229.571C132.742 223.738 131.553 227.638 129.801 230.529L117.553 233.305C117.531 233.157 117.516 233 117.494 232.853C117.465 232.667 117.436 232.481 117.4 232.297C117.172 231.106 116.756 229.962 116.169 228.911C116.107 230.318 115.706 231.688 115.003 232.894C114.984 232.925 114.967 232.958 114.953 232.992C114.736 233.357 114.495 233.708 114.234 234.041C114.222 234.049 114.211 234.06 114.202 234.072C106.294 235.169 100.75 192.876 111.95 192.089C112.276 192.066 112.338 191.55 112.54 191.284C112.742 191.017 112.938 190.759 113.148 190.498C113.175 190.474 113.198 190.445 113.216 190.412C113.815 189.693 114.434 189.002 115.089 188.335C115.283 188.142 115.484 187.947 115.684 187.753C118.758 184.826 122.417 182.641 126.4 181.351C126.85 181.207 127.316 181.068 127.791 180.936C128.261 180.812 128.739 180.695 129.22 180.592L129.383 180.558C129.613 180.509 129.851 180.467 130.082 180.426C130.372 180.372 130.664 180.326 130.95 180.289C132.023 180.85 132.942 181.685 133.619 182.715L141.444 181.054C141.652 181.01 141.861 180.974 142.071 180.945L142.086 180.942C151.855 179.245 158.137 187.391 160.166 197.672Z" fill="#2F2E41"/>
<path id="Vector_72" d="M117.515 190.194C115.84 191.449 114.077 192.741 112.032 193.052C109.988 193.362 107.594 192.337 107.028 190.276C106.336 187.756 108.531 185.461 110.503 183.823L116.757 178.63C117.902 177.577 119.195 176.71 120.591 176.059C121.293 175.739 122.054 175.586 122.82 175.613C123.586 175.639 124.336 175.844 125.015 176.212C125.687 176.683 126.232 177.324 126.598 178.075C126.963 178.826 127.137 179.661 127.103 180.502C127.014 182.186 126.478 183.812 125.554 185.201C124.394 187.077 122.878 188.691 121.1 189.944C119.322 191.198 117.318 192.065 115.208 192.494" fill="#2F2E41"/>
<path id="Vector_73" d="M164.948 325.126H119.607C118.004 325.126 116.466 325.787 115.333 326.962C114.199 328.138 113.562 329.733 113.562 331.396C113.562 333.059 114.199 334.653 115.333 335.829C116.466 337.005 118.004 337.665 119.607 337.665H136.232V386.255H148.323V337.665H164.948C166.552 337.665 168.09 337.005 169.223 335.829C170.357 334.653 170.994 333.059 170.994 331.396C170.994 329.733 170.357 328.138 169.223 326.962C168.09 325.787 166.552 325.126 164.948 325.126Z" fill="#3F3D56"/>
<path id="Vector_74" d="M332.457 523.975L0.899866 524.216C0.661681 524.216 0.433491 524.117 0.265312 523.942C0.097133 523.767 0.00268555 523.53 0.00268555 523.283C0.00268555 523.036 0.097133 522.799 0.265312 522.624C0.433491 522.449 0.661681 522.351 0.899866 522.35L332.457 522.109C332.695 522.11 332.923 522.208 333.092 522.383C333.26 522.558 333.354 522.795 333.354 523.042C333.354 523.289 333.26 523.526 333.092 523.701C332.923 523.876 332.695 523.975 332.457 523.975Z" fill="#CACACA"/>
<path id="Vector_75" d="M428.943 419.888L436.324 428.23L470.862 402.675L459.968 390.363L428.943 419.888Z" fill="#A0616A"/>
<path id="Vector_76" d="M444.22 431.694V431.686L443.472 423.355L443.132 423.191L441.144 422.211L431.766 417.611L431.569 417.391L429.688 415.259L419.267 425.181L433.383 441.137L443.064 452.078L443.388 451.764C444.715 450.504 445.789 448.985 446.549 447.293C447.309 445.602 447.739 443.772 447.817 441.908C447.894 440.044 447.616 438.182 446.999 436.429C446.382 434.677 445.437 433.067 444.22 431.694H444.22Z" fill="#3D3C4A"/>
<path id="Vector_77" d="M390.703 503.105L401.148 506.395L418.358 466.177L402.941 461.321L390.703 503.105Z" fill="#A0616A"/>
<path id="Vector_78" d="M417.748 512.109C416.906 510.46 415.756 509.001 414.365 507.817C412.975 506.633 411.371 505.748 409.647 505.213L404.909 498.434L404.539 498.465L392.017 499.656L391.737 499.57L389.077 498.731L384.966 512.768L418.647 523.379L418.776 522.932C419.301 521.147 419.481 519.272 419.305 517.414C419.128 515.557 418.599 513.754 417.748 512.109V512.109Z" fill="#3D3C4A"/>
<path id="Path 17" d="M476.836 292.53C476.836 292.53 543.526 359.307 501.366 379.977H488.335C488.335 379.977 484.419 365.549 475.454 353.382C474.222 351.711 469.61 352.05 468.329 350.422C460.508 340.479 452.03 331.94 446.174 332.279L447.575 378.418L449.842 394.876C451.032 403.383 417.436 477.668 417.436 477.668L396.32 469.061C396.32 469.061 418.321 407.877 418.578 399.056L400.948 302.07L476.836 292.53Z" fill="#3D3C4A"/>
<path id="Vector_79" d="M482.397 295.823C482.057 296.326 481.613 296.744 481.097 297.046C480.247 297.544 479.327 297.899 478.369 298.096C463.354 301.631 414.302 308.958 401.569 305.463C400.005 305.04 398.984 304.444 398.652 303.66C397.586 301.184 397.722 290.722 398.35 278.088C398.463 275.722 400.979 273.159 401.13 270.682C401.236 268.825 398.977 267.077 399.098 265.189C399.929 252.414 401.002 239.397 401.72 231.168C402.173 225.878 402.483 222.571 402.483 222.571L394.737 171.92L395.1 171.301L395.508 171.09L420.484 158.268L421.844 154.663C422.238 153.625 422.923 152.734 423.811 152.104C424.699 151.474 425.748 151.134 426.824 151.129L443.275 151.058C444.129 151.053 444.971 151.26 445.732 151.661C446.493 152.061 447.151 152.645 447.65 153.362L452.109 159.765L481.581 179.358L481.467 179.718L467.638 223.363L467.57 226.764V226.772L467.056 254.123L468.485 257.83L466.875 263.911C466.875 263.911 467.616 271.019 471.583 276.301C475.18 281.098 479.76 286.098 481.83 290.157V290.165C482.979 292.407 483.364 294.35 482.397 295.823Z" fill="#F9A826"/>
<path id="Path 18" d="M504.568 376.01L501.003 380.681C501.003 380.681 468.219 404.468 467.093 406.691L461.912 411.775L449.375 397.878L455.895 389.403C461.112 382.622 467.853 377.27 475.527 373.816V373.816L485.518 364.623L504.568 376.01Z" fill="#3D3C4A"/>
<path id="Vector_80" d="M483.736 309.249L477.766 249.319L476.19 224.654L492.9 221.52C492.9 221.52 492.238 239.157 494.427 249.107C496.588 258.926 494.714 307.933 494.581 309.243C495.808 310.381 496.673 311.879 497.061 313.538C497.45 315.197 497.344 316.94 496.757 318.535C496.17 320.13 495.13 321.502 493.774 322.471C492.419 323.44 490.811 323.959 489.165 323.96C487.519 323.961 485.911 323.443 484.555 322.476C483.198 321.508 482.157 320.137 481.568 318.542C480.98 316.948 480.872 315.205 481.259 313.546C481.646 311.886 482.51 310.388 483.736 309.249V309.249Z" fill="#A0616A"/>
<path id="Vector_81" d="M500.036 261.738L478.558 266.349L476.68 258.584L474.491 256.175L470.116 232.411L463.84 218.49L465.472 170.885L481.412 179.652L481.431 179.668C483.869 182.413 485.55 186.341 488.343 190.283C497.147 202.703 498.124 232.884 497.857 249.416C497.853 249.687 498.116 249.974 498.432 250.275C499.931 251.702 500.909 253.622 501.201 255.71C501.494 257.799 501.082 259.928 500.036 261.738V261.738Z" fill="#F9A826"/>
<path id="Vector_82" d="M386.476 311.6L392.446 251.67L394.022 227.005L377.312 223.871C377.312 223.871 377.974 241.508 375.785 251.458C373.625 261.277 375.498 310.284 375.632 311.595C374.404 312.733 373.539 314.23 373.151 315.889C372.762 317.548 372.868 319.291 373.455 320.886C374.042 322.481 375.082 323.854 376.438 324.822C377.794 325.791 379.401 326.31 381.047 326.311C382.693 326.312 384.301 325.794 385.658 324.827C387.014 323.859 388.055 322.488 388.644 320.893C389.232 319.299 389.34 317.556 388.953 315.897C388.566 314.238 387.702 312.739 386.476 311.6V311.6Z" fill="#A0616A"/>
<path id="Vector_83" d="M406.375 220.839L401.72 231.168L400.095 234.765L395.72 258.527L393.536 260.933L391.654 268.7L390.77 268.512L374.825 265.087L370.178 264.091C369.13 262.281 368.717 260.152 369.009 258.063C369.301 255.974 370.28 254.053 371.78 252.626C372.097 252.328 372.361 252.038 372.354 251.764C372.089 235.236 373.064 205.055 381.868 192.634C384.664 188.692 386.342 184.765 388.783 182.022C388.79 182.014 388.79 182.007 388.798 182.007L394.737 171.92L395.1 171.301L395.508 171.09L406.375 220.839Z" fill="#F9A826"/>
<path id="Ellipse 5" d="M434.575 146.201C446.664 146.201 456.464 136.038 456.464 123.501C456.464 110.964 446.664 100.8 434.575 100.8C422.486 100.8 412.686 110.964 412.686 123.501C412.686 136.038 422.486 146.201 434.575 146.201Z" fill="#A0616A"/>
<path id="Vector_84" d="M459.182 113.543C459.107 109.671 458.683 104.718 456.069 100.768C453.862 97.4453 449.411 94.8121 445.262 96.1287C445.309 95.2683 445.125 94.4114 444.73 93.6533C444.335 92.8951 443.745 92.2653 443.026 91.834C441.454 90.8387 439.565 90.6585 437.895 90.4939C433.685 90.0864 429.325 89.6631 425.063 90.5017C420.28 91.4421 416.365 93.997 414.332 97.5158L414.287 97.6255L413.871 99.7102C413.816 99.9898 413.703 100.254 413.54 100.484C413.377 100.714 413.167 100.904 412.927 101.042C412.686 101.183 412.418 101.266 412.142 101.286C411.866 101.307 411.59 101.264 411.332 101.16C411.05 101.05 410.745 101.019 410.448 101.069C410.151 101.119 409.871 101.248 409.637 101.444C409.402 101.641 409.222 101.897 409.112 102.188C409.002 102.479 408.968 102.795 409.012 103.104L409.126 103.934L407.924 103.699C407.622 103.639 407.311 103.663 407.021 103.769C406.731 103.875 406.474 104.059 406.276 104.303C406.078 104.547 405.947 104.841 405.895 105.155C405.843 105.469 405.873 105.792 405.982 106.09L406.314 107.038C406.066 107.041 405.821 107.096 405.594 107.2C405.367 107.304 405.162 107.454 404.992 107.641C404.749 107.915 404.597 108.261 404.556 108.63C404.515 108.999 404.588 109.372 404.765 109.695C406.112 112.079 408.021 114.069 410.312 115.478C411.343 116.122 412.454 116.615 413.614 116.944C413.856 117.014 414.106 117.077 414.362 117.132C423.641 119.206 433.206 119.503 442.587 118.01C442.035 119.929 441.822 121.936 441.96 123.934C442.262 126.434 443.676 128.496 445.565 129.185C445.993 129.335 446.433 129.446 446.88 129.514C447.308 129.586 447.73 129.694 448.142 129.836C448.749 130.067 449.288 130.46 449.702 130.976C450.116 131.492 450.391 132.112 450.5 132.773C450.609 133.435 450.548 134.115 450.322 134.744C450.096 135.373 449.714 135.929 449.215 136.356C449.215 136.356 451.195 138.057 451.444 137.97C452.417 137.525 453.231 136.774 453.771 135.823C457.542 130.196 459.364 122.704 459.182 113.543Z" fill="#2F2E41"/>
</g>
<defs>
<clipPath id="clip0_2_2">
<rect width="585" height="525" fill="white"/>
</clipPath>
</defs>
</svg>
