<svg width="638" height="637" viewBox="0 0 638 637" fill="none" xmlns="http://www.w3.org/2000/svg">
<g id="undraw_uploading_re_okvh 1" clip-path="url(#clip0_1_2)">
<g id="Vector">
<path d="M541.87 282.95C525.89 300.89 523.06 324.95 520.5 349.49C518.59 367.64 516.83 386.06 510 402.47C504.229 416.103 495.044 428.019 483.33 437.07C482.28 437.89 481.21 438.68 480.12 439.45H421.85C421.76 438.66 421.69 437.86 421.62 437.07C419.112 407.203 425.888 377.291 441.02 351.42C447.075 341.287 454.383 331.957 462.77 323.65C471.86 339.52 483.08 354.86 483.08 354.86L478.01 310.38C496.748 296.177 518.669 286.761 541.87 282.95V282.95Z" fill="#F5F5F5"/>
<path d="M541.87 282.95C525.89 300.89 523.06 324.95 520.5 349.49C518.59 367.64 516.83 386.06 510 402.47C504.229 416.103 495.044 428.019 483.33 437.07C482.28 437.89 481.21 438.68 480.12 439.45H421.85C421.76 438.66 421.69 437.86 421.62 437.07C419.112 407.203 425.888 377.291 441.02 351.42C447.075 341.287 454.383 331.957 462.77 323.65C471.86 339.52 483.08 354.86 483.08 354.86L478.01 310.38C496.748 296.177 518.669 286.761 541.87 282.95V282.95Z" fill="black" fill-opacity="0.2"/>
</g>
<g id="Vector_2">
<path d="M637.79 335.36C598.99 350.89 587.56 400.76 555.96 428.12C552.059 431.486 547.855 434.482 543.4 437.07C541.96 437.91 540.5 438.71 539.01 439.45H455.13C455.33 438.66 455.52 437.86 455.73 437.07C464.67 402.38 486.84 371.12 516.99 351.67C518.15 350.92 519.32 350.19 520.5 349.49C529.439 344.131 538.943 339.778 548.84 336.51C549.9 354.76 553.1 373.5 553.1 373.5L568.4 331.43C591.505 327.074 615.324 328.423 637.79 335.36V335.36Z" fill="#CCCCCC"/>
<path d="M637.79 335.36C598.99 350.89 587.56 400.76 555.96 428.12C552.059 431.486 547.855 434.482 543.4 437.07C541.96 437.91 540.5 438.71 539.01 439.45H455.13C455.33 438.66 455.52 437.86 455.73 437.07C464.67 402.38 486.84 371.12 516.99 351.67C518.15 350.92 519.32 350.19 520.5 349.49C529.439 344.131 538.943 339.778 548.84 336.51C549.9 354.76 553.1 373.5 553.1 373.5L568.4 331.43C591.505 327.074 615.324 328.423 637.79 335.36V335.36Z" fill="black" fill-opacity="0.2"/>
</g>
<path id="Vector_3" d="M637.67 438.26C637.671 438.416 637.64 438.571 637.58 438.716C637.521 438.861 637.433 438.992 637.323 439.103C637.212 439.213 637.081 439.301 636.936 439.36C636.791 439.42 636.636 439.451 636.48 439.45H1.19C0.874395 439.45 0.57171 439.325 0.348541 439.101C0.125373 438.878 0 438.576 0 438.26C0 437.944 0.125373 437.642 0.348541 437.419C0.57171 437.195 0.874395 437.07 1.19 437.07H636.48C636.636 437.07 636.791 437.1 636.936 437.16C637.081 437.219 637.212 437.307 637.323 437.418C637.433 437.528 637.521 437.659 637.58 437.804C637.64 437.949 637.671 438.104 637.67 438.26V438.26Z" fill="#CCCCCC"/>
<path id="Vector_4" d="M399.411 447.133H288.395C283.266 447.135 278.186 446.127 273.447 444.166C268.707 442.205 264.4 439.329 260.772 435.703C257.144 432.077 254.266 427.772 252.303 423.033C250.339 418.294 249.329 413.215 249.329 408.086C249.329 402.957 250.339 397.877 252.303 393.139C254.266 388.4 257.144 384.095 260.772 380.469C264.4 376.843 268.707 373.967 273.447 372.006C278.186 370.045 283.266 369.036 288.395 369.039H399.411C404.54 369.036 409.62 370.045 414.36 372.006C419.099 373.967 423.406 376.843 427.034 380.469C430.662 384.095 433.54 388.4 435.504 393.139C437.467 397.877 438.478 402.957 438.478 408.086C438.478 413.215 437.467 418.294 435.504 423.033C433.54 427.772 430.662 432.077 427.034 435.703C423.406 439.329 419.099 442.205 414.36 444.166C409.62 446.127 404.54 447.135 399.411 447.133V447.133Z" fill="#2F2E41"/>
<path id="Vector_5" d="M296.957 589.503L312.076 600.303L360.93 547.126L338.615 531.186L296.957 589.503Z" fill="#FFB6B6"/>
<path id="Vector_6" d="M296.627 581.811L300.883 584.851L322.324 589.964L326.402 603.081L326.403 603.082C331.435 606.677 334.833 612.124 335.85 618.225C336.866 624.325 335.417 630.579 331.823 635.612L331.382 636.228L282.632 601.403L296.627 581.811Z" fill="#2F2E41"/>
<path id="Vector_7" d="M382.79 432L368.303 410.698C366.528 387.582 384.321 367.222 407.5 366.767C420.409 366.514 433.027 372.705 439.757 393.643C457.061 447.484 341.129 572.065 341.129 572.065L316.921 559.73L314.619 544.779L326.863 535.764L325.816 522.938L337.635 516.089L382.79 432Z" fill="#2F2E41"/>
<path id="Vector_8" d="M344.944 174.476L362.851 188.111L384.446 194.748C384.446 194.748 393.374 320.329 401.419 328.373C409.463 336.418 402.208 336.634 403.824 347.084C405.441 357.534 409.369 378.956 409.369 378.956C355.07 407.699 308.258 408.47 270.656 374.835C270.175 372.755 270.419 370.572 271.349 368.65C272.278 366.727 273.836 365.18 275.766 364.264C282.764 360.551 269.314 343.219 275.034 340.321C280.753 337.423 272.709 312.284 272.709 312.284L277.986 259.835L273.817 251.45L283.991 200.149L301.645 193.701L308.697 176.71L344.944 174.476Z" fill="#536DFE"/>
<path id="Vector_9" d="M326.613 166.887C346.175 166.887 362.033 151.029 362.033 131.467C362.033 111.906 346.175 96.0476 326.613 96.0476C307.051 96.0476 291.193 111.906 291.193 131.467C291.193 151.029 307.051 166.887 326.613 166.887Z" fill="#FFB6B6"/>
<path id="Vector_10" d="M215.089 74.7164C216.452 76.202 217.455 77.9532 218.028 79.8466C218.601 81.7401 218.729 83.7298 218.405 85.6756C218.08 87.6213 217.31 89.4759 216.149 91.1085C214.988 92.7411 213.464 94.1121 211.684 95.125L222 142L197.632 132.839L191.572 89.7304C189.978 86.779 189.58 83.375 190.453 80.1634C191.325 76.9519 193.409 74.1558 196.307 72.3052C199.206 70.4545 202.719 69.6778 206.181 70.1222C209.642 70.5666 212.812 72.2013 215.089 74.7165L215.089 74.7164Z" fill="#FFB6B6"/>
<path id="Vector_11" d="M191 114L201.496 203.806L201.868 203.975C202.174 204.115 215.471 210.175 231.794 217.392C234.548 218.609 234.153 223.883 237.031 225.143C239.013 226.012 244.248 222.861 246.251 223.732C264.092 231.484 282.133 239.021 289.323 241.064C299.029 243.921 309.495 243.608 318.983 240.177L319.212 240.079L319.332 239.873C321.756 235.653 322.561 230.792 321.613 226.091C320.664 221.39 318.02 217.129 314.116 214.012C295.18 199.053 272.761 188.388 248.629 182.859L234.898 179.729L217.312 115.756L191 114Z" fill="#536DFE"/>
<path id="Vector_12" d="M297.763 101.039C300.676 92.5645 315.176 86.6868 338.684 85.8695C362.191 85.0521 368.153 112.754 368.153 112.754C383.846 125.484 351.396 159.566 349.826 158.339L350.532 151.935C351.701 141.329 356.667 133.054 350.351 122L344.286 122.07L332.782 124.282C332.065 124.42 331.322 124.318 330.669 123.992C330.015 123.666 329.487 123.135 329.166 122.479C328.844 121.823 328.747 121.08 328.89 120.364C329.032 119.648 329.406 118.999 329.954 118.516L330.06 118.423L329.798 118.019C325.746 119.878 321.57 121.602 317.139 121.862C312.155 122.155 306.706 120.172 304.318 115.786C303.681 114.581 303.291 113.26 303.173 111.902C296.451 114.587 293.378 122.873 293.378 122.873C293.378 122.873 294.85 109.513 297.763 101.039Z" fill="#2F2E41"/>
<path id="Vector_13" d="M204 90C225.539 90 243 72.9868 243 52C243 31.0132 225.539 14 204 14C182.461 14 165 31.0132 165 52C165 72.9868 182.461 90 204 90Z" fill="#2F2E41"/>
<path id="Vector_14" d="M393.424 574.435L379.244 586.442L326.184 537.462L347.112 519.741L393.424 574.435Z" fill="#FFB6B6"/>
<path id="Vector_15" d="M408.679 585.117L362.958 623.833L362.468 623.254C358.472 618.535 356.514 612.421 357.025 606.257C357.536 600.094 360.475 594.386 365.194 590.389L365.195 590.388L368.181 576.98L389.129 570.122L393.12 566.742L408.679 585.117Z" fill="#2F2E41"/>
<path id="Vector_16" d="M305.79 439L317.511 413.583C317.379 390.399 297.972 371.571 274.834 373.024C261.948 373.833 249.882 381.04 244.897 402.461C232.078 457.543 357.86 572.169 357.86 572.169L380.973 557.885L382.038 542.796L369.094 534.818L369.083 521.949L356.74 516.095L305.79 439Z" fill="#2F2E41"/>
<path id="Vector_17" d="M296.677 390.035V301.741C296.679 299.953 297.39 298.24 298.653 296.976C299.917 295.713 301.63 295.002 303.418 295H370.099C371.886 295.002 373.6 295.713 374.863 296.977C376.127 298.24 376.838 299.953 376.84 301.741V390.035C376.838 391.822 376.127 393.535 374.863 394.799C373.6 396.063 371.886 396.773 370.099 396.775H303.418C301.63 396.773 299.917 396.063 298.653 394.799C297.39 393.535 296.679 391.822 296.677 390.035Z" fill="#E6E6E6"/>
<path id="Vector_18" d="M301.792 363.366V306.603C301.794 304.929 302.459 303.324 303.643 302.141C304.826 300.958 306.431 300.292 308.105 300.29H365.412C367.086 300.292 368.69 300.957 369.874 302.141C371.057 303.324 371.723 304.929 371.725 306.603V385.173C371.723 386.846 371.057 388.451 369.874 389.634C368.69 390.818 367.086 391.483 365.412 391.485H329.911C322.456 391.477 315.309 388.512 310.037 383.24C304.766 377.969 301.8 370.821 301.792 363.366V363.366Z" fill="white"/>
<path id="Vector_19" d="M311.071 322.441C311.072 320.805 311.723 319.237 312.879 318.081C314.036 316.924 315.604 316.274 317.239 316.272H356.993C358.629 316.272 360.199 316.922 361.355 318.079C362.512 319.236 363.162 320.805 363.162 322.441C363.162 324.077 362.512 325.646 361.355 326.803C360.199 327.96 358.629 328.609 356.993 328.609H317.239C315.604 328.608 314.036 327.957 312.879 326.801C311.723 325.644 311.072 324.076 311.071 322.441V322.441Z" fill="#E6E6E6"/>
<path id="Vector_20" d="M311.071 341.632C311.072 339.997 311.723 338.429 312.879 337.272C314.036 336.116 315.604 335.465 317.239 335.464H356.993C358.629 335.464 360.199 336.114 361.355 337.27C362.512 338.427 363.162 339.996 363.162 341.632C363.162 343.268 362.512 344.837 361.355 345.994C360.199 347.151 358.629 347.801 356.993 347.801H317.239C315.604 347.799 314.036 347.149 312.879 345.992C311.723 344.836 311.072 343.268 311.071 341.632V341.632Z" fill="#E6E6E6"/>
<path id="Vector_21" d="M311.071 360.824C311.072 359.188 311.723 357.62 312.879 356.464C314.036 355.307 315.604 354.657 317.239 354.655H356.993C358.629 354.655 360.199 355.305 361.355 356.462C362.512 357.619 363.162 359.188 363.162 360.824C363.162 362.46 362.512 364.029 361.355 365.186C360.199 366.343 358.629 366.993 356.993 366.993H317.239C315.604 366.991 314.036 366.34 312.879 365.184C311.723 364.027 311.072 362.459 311.071 360.824V360.824Z" fill="#E6E6E6"/>
<path id="Vector_22" d="M356.162 397.676C356.082 395.408 356.5 393.15 357.387 391.061C358.273 388.973 359.607 387.103 361.295 385.586C362.982 384.068 364.981 382.939 367.152 382.278C369.323 381.617 371.613 381.44 373.859 381.759L399.096 332.707L413.155 357.688L387.035 400.438C386.249 404.177 384.118 407.498 381.047 409.77C377.976 412.043 374.177 413.11 370.372 412.77C366.566 412.429 363.018 410.705 360.399 407.923C357.78 405.141 356.273 401.495 356.162 397.676H356.162Z" fill="#FFB6B6"/>
<path id="Vector_23" d="M398.662 385.677L452.79 301.785L452.611 301.399C452.407 300.957 440.15 274.484 428.273 250.237C426.444 246.503 424.624 242.822 422.859 239.297C422.097 237.775 421.346 236.286 420.607 234.828C415.619 224.994 411.26 216.865 408.659 213.004C402.904 204.275 394.337 197.776 384.38 194.587L384.13 194.522L383.891 194.622C379.02 196.677 374.995 200.331 372.48 204.98C369.965 209.63 369.109 214.998 370.053 220.199C374.749 245.287 385.21 268.94 400.613 289.291L409.388 300.858L378.894 367.155L398.662 385.677Z" fill="#536DFE"/>
<path id="Vector_24" d="M204 87C223.33 87 239 71.1061 239 51.5C239 31.8939 223.33 16 204 16C184.67 16 169 31.8939 169 51.5C169 71.1061 184.67 87 204 87Z" fill="#536DFE"/>
<path id="Vector_25" d="M204 56C206.209 56 208 54.2091 208 52C208 49.7909 206.209 48 204 48C201.791 48 200 49.7909 200 52C200 54.2091 201.791 56 204 56Z" fill="#3C3C3F"/>
<rect id="Rectangle 1" x="171" y="50" width="10" height="4" fill="#D9D9D9"/>
<rect id="Rectangle 2" x="227" y="50" width="10" height="4" fill="#D9D9D9"/>
<rect id="Rectangle 3" x="206.101" y="73.0403" width="10" height="4" transform="rotate(90.5773 206.101 73.0403)" fill="#D9D9D9"/>
<rect id="Rectangle 4" x="206.101" y="19.0403" width="10" height="4" transform="rotate(90.5773 206.101 19.0403)" fill="#D9D9D9"/>
<path id="Polygon 1" d="M204 26L204.866 50H203.134L204 26Z" fill="#3C3C3F"/>
<path id="Polygon 2" d="M234.479 61.3676L204.064 53.9799L204.893 51.1525L234.479 61.3676Z" fill="#3C3C3F"/>
<ellipse id="Ellipse 1" cx="204.5" cy="10.5" rx="8.5" ry="3.5" fill="#2F2E41"/>
</g>
<defs>
<clipPath id="clip0_1_2">
<rect width="637.79" height="636.228" fill="white"/>
</clipPath>
</defs>
</svg>
